<mxfile host="app.diagrams.net" modified="2024-05-09T22:58:03.263Z" agent="Mozilla/5.0 (Windows NT 10.0; Win64; x64) AppleWebKit/537.36 (KHTML, like Gecko) Chrome/124.0.0.0 Safari/537.36" etag="fWxfC-7ncj_GxsJOPl8P" version="24.3.1" type="github">
  <diagram name="Trang-1" id="2nrROjX0beiRtztcqFTw">
    <mxGraphModel dx="1050" dy="522" grid="1" gridSize="10" guides="1" tooltips="1" connect="1" arrows="1" fold="1" page="1" pageScale="1" pageWidth="827" pageHeight="1169" math="0" shadow="0">
      <root>
        <mxCell id="0" />
        <mxCell id="1" parent="0" />
        <mxCell id="v3Pj-8aAPn_G0F9ECPp6-9" style="edgeStyle=orthogonalEdgeStyle;rounded=0;orthogonalLoop=1;jettySize=auto;html=1;exitX=0.5;exitY=0.5;exitDx=0;exitDy=0;exitPerimeter=0;entryX=0;entryY=0.5;entryDx=0;entryDy=0;" edge="1" parent="1" source="v3Pj-8aAPn_G0F9ECPp6-1" target="v3Pj-8aAPn_G0F9ECPp6-2">
          <mxGeometry relative="1" as="geometry" />
        </mxCell>
        <mxCell id="v3Pj-8aAPn_G0F9ECPp6-1" value="Actor" style="shape=umlActor;verticalLabelPosition=bottom;verticalAlign=top;html=1;outlineConnect=0;" vertex="1" parent="1">
          <mxGeometry x="160" y="120" width="40" height="80" as="geometry" />
        </mxCell>
        <mxCell id="v3Pj-8aAPn_G0F9ECPp6-10" style="edgeStyle=orthogonalEdgeStyle;rounded=0;orthogonalLoop=1;jettySize=auto;html=1;exitX=1;exitY=0.5;exitDx=0;exitDy=0;entryX=0;entryY=0.5;entryDx=0;entryDy=0;" edge="1" parent="1" source="v3Pj-8aAPn_G0F9ECPp6-2" target="v3Pj-8aAPn_G0F9ECPp6-6">
          <mxGeometry relative="1" as="geometry" />
        </mxCell>
        <mxCell id="v3Pj-8aAPn_G0F9ECPp6-2" value="QUẸT THẺ" style="rounded=1;whiteSpace=wrap;html=1;" vertex="1" parent="1">
          <mxGeometry x="280" y="120" width="120" height="80" as="geometry" />
        </mxCell>
        <mxCell id="v3Pj-8aAPn_G0F9ECPp6-3" value="" style="shape=flexArrow;endArrow=classic;html=1;rounded=0;width=10;endSize=7.13;" edge="1" parent="1">
          <mxGeometry width="50" height="50" relative="1" as="geometry">
            <mxPoint x="160" y="250" as="sourcePoint" />
            <mxPoint x="230" y="250" as="targetPoint" />
          </mxGeometry>
        </mxCell>
        <mxCell id="v3Pj-8aAPn_G0F9ECPp6-4" value="XE VÀO" style="edgeLabel;html=1;align=center;verticalAlign=middle;resizable=0;points=[];" vertex="1" connectable="0" parent="v3Pj-8aAPn_G0F9ECPp6-3">
          <mxGeometry x="0.3371" y="-1" relative="1" as="geometry">
            <mxPoint x="-17" y="-1" as="offset" />
          </mxGeometry>
        </mxCell>
        <mxCell id="v3Pj-8aAPn_G0F9ECPp6-11" style="edgeStyle=orthogonalEdgeStyle;rounded=0;orthogonalLoop=1;jettySize=auto;html=1;exitX=1;exitY=0.5;exitDx=0;exitDy=0;entryX=0;entryY=0.5;entryDx=0;entryDy=0;" edge="1" parent="1" source="v3Pj-8aAPn_G0F9ECPp6-6" target="v3Pj-8aAPn_G0F9ECPp6-7">
          <mxGeometry relative="1" as="geometry" />
        </mxCell>
        <mxCell id="v3Pj-8aAPn_G0F9ECPp6-6" value="CAMERA" style="ellipse;whiteSpace=wrap;html=1;aspect=fixed;" vertex="1" parent="1">
          <mxGeometry x="430" y="70" width="60" height="60" as="geometry" />
        </mxCell>
        <mxCell id="v3Pj-8aAPn_G0F9ECPp6-27" style="edgeStyle=orthogonalEdgeStyle;rounded=0;orthogonalLoop=1;jettySize=auto;html=1;exitX=0.5;exitY=1;exitDx=0;exitDy=0;entryX=0.5;entryY=0;entryDx=0;entryDy=0;" edge="1" parent="1" source="v3Pj-8aAPn_G0F9ECPp6-7" target="v3Pj-8aAPn_G0F9ECPp6-12">
          <mxGeometry relative="1" as="geometry" />
        </mxCell>
        <mxCell id="v3Pj-8aAPn_G0F9ECPp6-7" value="CHỤP HÌNH VÀ NHẬN DIỆN BIỂN SỐ XE" style="rounded=1;whiteSpace=wrap;html=1;" vertex="1" parent="1">
          <mxGeometry x="530" y="120" width="120" height="80" as="geometry" />
        </mxCell>
        <mxCell id="v3Pj-8aAPn_G0F9ECPp6-12" value="XE VÀO BÃI" style="rounded=1;whiteSpace=wrap;html=1;" vertex="1" parent="1">
          <mxGeometry x="530" y="240" width="120" height="60" as="geometry" />
        </mxCell>
        <mxCell id="v3Pj-8aAPn_G0F9ECPp6-13" value="" style="shape=flexArrow;endArrow=classic;html=1;rounded=0;" edge="1" parent="1">
          <mxGeometry width="50" height="50" relative="1" as="geometry">
            <mxPoint x="580" y="329.5" as="sourcePoint" />
            <mxPoint x="510" y="329.5" as="targetPoint" />
          </mxGeometry>
        </mxCell>
        <mxCell id="v3Pj-8aAPn_G0F9ECPp6-14" value="XE RA" style="edgeLabel;html=1;align=center;verticalAlign=middle;resizable=0;points=[];" vertex="1" connectable="0" parent="v3Pj-8aAPn_G0F9ECPp6-13">
          <mxGeometry x="-0.2514" y="3" relative="1" as="geometry">
            <mxPoint x="-4" y="-3" as="offset" />
          </mxGeometry>
        </mxCell>
        <mxCell id="v3Pj-8aAPn_G0F9ECPp6-19" style="edgeStyle=orthogonalEdgeStyle;rounded=0;orthogonalLoop=1;jettySize=auto;html=1;exitX=0;exitY=0.5;exitDx=0;exitDy=0;entryX=0.25;entryY=1;entryDx=0;entryDy=0;" edge="1" parent="1" source="v3Pj-8aAPn_G0F9ECPp6-15" target="v3Pj-8aAPn_G0F9ECPp6-17">
          <mxGeometry relative="1" as="geometry" />
        </mxCell>
        <mxCell id="v3Pj-8aAPn_G0F9ECPp6-15" value="CAMERA" style="ellipse;whiteSpace=wrap;html=1;aspect=fixed;" vertex="1" parent="1">
          <mxGeometry x="310" y="390" width="60" height="60" as="geometry" />
        </mxCell>
        <mxCell id="v3Pj-8aAPn_G0F9ECPp6-18" style="edgeStyle=orthogonalEdgeStyle;rounded=0;orthogonalLoop=1;jettySize=auto;html=1;exitX=0.5;exitY=1;exitDx=0;exitDy=0;entryX=1;entryY=0.5;entryDx=0;entryDy=0;" edge="1" parent="1" source="v3Pj-8aAPn_G0F9ECPp6-16" target="v3Pj-8aAPn_G0F9ECPp6-15">
          <mxGeometry relative="1" as="geometry" />
        </mxCell>
        <mxCell id="v3Pj-8aAPn_G0F9ECPp6-16" value="QUẸT THẺ" style="rounded=1;whiteSpace=wrap;html=1;" vertex="1" parent="1">
          <mxGeometry x="390" y="290" width="120" height="80" as="geometry" />
        </mxCell>
        <mxCell id="v3Pj-8aAPn_G0F9ECPp6-22" style="edgeStyle=orthogonalEdgeStyle;rounded=0;orthogonalLoop=1;jettySize=auto;html=1;exitX=0;exitY=0.5;exitDx=0;exitDy=0;entryX=1;entryY=1;entryDx=0;entryDy=0;" edge="1" parent="1" source="v3Pj-8aAPn_G0F9ECPp6-17" target="v3Pj-8aAPn_G0F9ECPp6-20">
          <mxGeometry relative="1" as="geometry" />
        </mxCell>
        <mxCell id="v3Pj-8aAPn_G0F9ECPp6-23" style="edgeStyle=orthogonalEdgeStyle;rounded=0;orthogonalLoop=1;jettySize=auto;html=1;exitX=0;exitY=0.5;exitDx=0;exitDy=0;entryX=1;entryY=0;entryDx=0;entryDy=0;" edge="1" parent="1" source="v3Pj-8aAPn_G0F9ECPp6-17" target="v3Pj-8aAPn_G0F9ECPp6-21">
          <mxGeometry relative="1" as="geometry" />
        </mxCell>
        <mxCell id="v3Pj-8aAPn_G0F9ECPp6-17" value="CHỤP HÌNH XE RA VÀ SO SÁNH XE BAN ĐẦU" style="rounded=1;whiteSpace=wrap;html=1;" vertex="1" parent="1">
          <mxGeometry x="240" y="290" width="120" height="80" as="geometry" />
        </mxCell>
        <mxCell id="v3Pj-8aAPn_G0F9ECPp6-20" value="TRUE" style="ellipse;whiteSpace=wrap;html=1;" vertex="1" parent="1">
          <mxGeometry x="160" y="280" width="70" height="40" as="geometry" />
        </mxCell>
        <mxCell id="v3Pj-8aAPn_G0F9ECPp6-28" style="edgeStyle=orthogonalEdgeStyle;rounded=0;orthogonalLoop=1;jettySize=auto;html=1;exitX=0.5;exitY=1;exitDx=0;exitDy=0;entryX=0.5;entryY=1;entryDx=0;entryDy=0;" edge="1" parent="1" source="v3Pj-8aAPn_G0F9ECPp6-21" target="v3Pj-8aAPn_G0F9ECPp6-12">
          <mxGeometry relative="1" as="geometry">
            <Array as="points">
              <mxPoint x="195" y="470" />
              <mxPoint x="590" y="470" />
            </Array>
          </mxGeometry>
        </mxCell>
        <mxCell id="v3Pj-8aAPn_G0F9ECPp6-21" value="FALSE" style="ellipse;whiteSpace=wrap;html=1;" vertex="1" parent="1">
          <mxGeometry x="160" y="340" width="70" height="40" as="geometry" />
        </mxCell>
        <mxCell id="v3Pj-8aAPn_G0F9ECPp6-24" value="" style="shape=flexArrow;endArrow=classic;html=1;rounded=0;" edge="1" parent="1">
          <mxGeometry width="50" height="50" relative="1" as="geometry">
            <mxPoint x="150" y="299.5" as="sourcePoint" />
            <mxPoint x="80" y="300" as="targetPoint" />
          </mxGeometry>
        </mxCell>
        <mxCell id="v3Pj-8aAPn_G0F9ECPp6-25" value="XE RA" style="edgeLabel;html=1;align=center;verticalAlign=middle;resizable=0;points=[];" vertex="1" connectable="0" parent="v3Pj-8aAPn_G0F9ECPp6-24">
          <mxGeometry x="-0.0933" y="1" relative="1" as="geometry">
            <mxPoint as="offset" />
          </mxGeometry>
        </mxCell>
      </root>
    </mxGraphModel>
  </diagram>
</mxfile>
